<svg width="65" height="31" viewBox="0 0 65 31" fill="none" xmlns="http://www.w3.org/2000/svg">
<path d="M35.1953 23.5725V7.27113L38.5156 6.88021L39.0234 9.42119C40.1172 7.66205 41.6797 6.80202 43.7891 6.80202C44.2187 6.80202 44.5703 6.84111 44.8437 6.88021L44.7656 10.203C44.375 10.1248 43.9453 10.1248 43.5156 10.1248C42.0312 10.1248 40.9375 10.5158 40.2344 11.2976C39.4922 12.0794 39.1406 13.174 39.1406 14.5422V23.5725H35.1953Z" fill="white"/>
<path d="M51.2891 1.05549V4.30013H47.3047V1.32913L51.2891 1.05549Z" fill="white"/>
<path d="M51.2891 6.8802H47.3047V23.5725H51.2891V6.8802Z" fill="white"/>
<path d="M56.3672 23.5725V9.53846H53.7109V7.31021L56.3672 6.8802V5.94199C56.3672 4.9256 56.4453 4.06557 56.6406 3.36192C56.8359 2.65826 57.1484 2.03279 57.5781 1.52459C58.0078 1.01639 58.5547 0.625473 59.2969 0.390921C60 0.156368 60.8984 0 61.9141 0C62.9297 0 63.9453 0.0781841 65 0.273644L64.6484 3.24464C63.8281 3.12736 63.1641 3.08827 62.6953 3.08827C61.8359 3.08827 61.25 3.28373 60.8984 3.71375C60.5469 4.10467 60.3516 4.80832 60.3516 5.74653V6.8802H63.75L63.9844 9.53846H60.3125V23.5725H56.3672Z" fill="white"/>
<path d="M2.07031 16.8487H0V18.9205H2.07031V16.8487Z" fill="#008CFF"/>
<path d="M4.21924 18.8815H6.25049L6.28955 16.8487H4.21924V18.8815Z" fill="#008CFF"/>
<path d="M14.1406 8.40479H7.30469V10.4767H14.1406V8.40479Z" fill="#008CFF"/>
<path d="M14.1797 4.22194H12.1094V6.29382H14.1797V4.22194Z" fill="#008CFF"/>
<path d="M22.5781 7.31022H20.5078V14.1513H22.5781V7.31022Z" fill="#008CFF"/>
<path d="M10.4687 16.8487H8.39844V23.6898H10.4687V16.8487Z" fill="#008CFF"/>
<path d="M14.1797 0H12.1094V2.07188H14.1797V0Z" fill="#008CFF"/>
<path d="M26.7969 12.0794H24.7266V14.1513H26.7969V12.0794Z" fill="#008CFF"/>
<path d="M28.5156 16.3405H18.7109V18.3342H28.5156V16.3405Z" fill="#008CFF"/>
<path d="M16.8359 22.5952H23.6719L23.7109 20.5233H16.8359V22.5952Z" fill="#008CFF"/>
<path d="M30.9766 12.1185H28.9062V14.1904H30.9766V12.1185Z" fill="#008CFF"/>
<path d="M18.9063 24.7453H16.8359V26.8172H18.9063V24.7453Z" fill="#008CFF"/>
<path d="M12.2656 12.6658H2.46094V14.6595H12.2656V12.6658Z" fill="#008CFF"/>
<path d="M14.6484 18.7251H12.6562V28.5372H14.6484V18.7251Z" fill="#008CFF"/>
<path d="M18.9063 28.9281H16.8359V31H18.9063V28.9281Z" fill="#008CFF"/>
<path d="M18.3203 2.4628H16.3281V12.2749H18.3203V2.4628Z" fill="#008CFF"/>
</svg>
