<svg width="161" height="12" viewBox="0 0 161 12" fill="none" xmlns="http://www.w3.org/2000/svg">
<path d="M1.20946 7.74783V11.6219H0V1.08638H4.00054C6.18688 1.08638 7.76849 2.50371 7.76849 4.44073C7.76849 6.37775 6.18688 7.79508 4.00054 7.79508H1.20946V7.74783ZM1.20946 2.173V6.61397H3.86098C5.44259 6.61397 6.55902 5.66908 6.55902 4.39348C6.55902 3.07064 5.44259 2.173 3.86098 2.173H1.20946Z" fill="white"/>
<path d="M15.0255 0.708673C18.2818 0.708673 20.6077 3.07088 20.6077 6.37796C20.6077 9.68504 18.2818 12 15.0255 12C11.7693 12 9.44335 9.68504 9.44335 6.37796C9.44335 3.07088 11.7693 0.708673 15.0255 0.708673ZM15.0255 10.8661C17.584 10.8661 19.3982 8.97638 19.3982 6.33071C19.3982 3.68505 17.584 1.79529 15.0255 1.79529C12.5135 1.79529 10.6528 3.68505 10.6528 6.33071C10.6528 8.97638 12.5135 10.8661 15.0255 10.8661Z" fill="white"/>
<path d="M28.1903 1.08638H30.0045L32.3304 10.7715L35.0285 1.08638H36.2845L33.3538 11.6219H31.3536L29.0742 2.36197L26.7483 11.6219H24.7945L21.8173 1.08638H23.1198L25.7714 10.7715L28.1903 1.08638Z" fill="white"/>
<path d="M44.8903 6.66121H39.5872V10.488H45.6346V11.6219H38.3778V1.08638H45.4486V2.173H39.5872V5.62184H44.8903V6.66121Z" fill="white"/>
<path d="M49.1235 7.46437V11.5746H47.914V1.08638H52.4728C54.6592 1.08638 56.2409 2.40922 56.2409 4.34624C56.2409 5.76357 55.1709 6.99192 53.6823 7.32263L56.3339 11.6219H54.8918L52.4263 7.51161H49.1235V7.46437ZM49.1235 2.173V6.37775H52.3798C53.9149 6.37775 54.9848 5.52735 54.9848 4.29899C54.9848 2.97615 53.9149 2.173 52.3798 2.173H49.1235Z" fill="white"/>
<path d="M65.1256 6.66121H59.8226V10.488H65.8699V11.6219H58.6131V1.08638H65.7303V2.173H59.8226V5.62184H65.1256V6.66121Z" fill="white"/>
<path d="M68.1494 11.6219V1.08638H71.3126C74.941 1.08638 77.36 3.21237 77.36 6.37775C77.36 9.54312 74.941 11.6219 71.3126 11.6219H68.1494ZM71.3126 2.173H69.3588V10.488H71.3126C74.1967 10.488 76.1505 8.8817 76.1505 6.3305C76.104 3.77931 74.1967 2.173 71.3126 2.173Z" fill="white"/>
<path d="M84.1517 11.6219V1.08638H88.5244C90.3851 1.08638 91.7807 2.26749 91.7807 3.92104C91.7807 5.00766 91.0829 5.9053 90.106 6.18877C91.269 6.47223 92.0598 7.51161 92.0598 8.69272C92.0598 10.3935 90.5712 11.6219 88.4779 11.6219H84.1517ZM85.3612 2.173V5.62184H88.3849C89.6408 5.62184 90.5712 4.91317 90.5712 3.92104C90.5712 2.92891 89.6874 2.173 88.3849 2.173H85.3612ZM85.3612 6.7557V10.5353H88.3383C89.7804 10.5353 90.8503 9.7321 90.8503 8.64548C90.8503 7.55886 89.8269 6.7557 88.3383 6.7557H85.3612Z" fill="white"/>
<path d="M97.642 11.6219H96.386V7.70059L92.6645 1.08638H94.0135L96.9907 6.47223L99.9679 1.08638H101.363L97.642 7.70059V11.6219Z" fill="white"/>
<path d="M135.648 11.4345H134.81V0.946201C134.81 0.615489 135.043 0.379266 135.369 0.379266H135.648V11.4345Z" fill="white"/>
<path d="M143.788 3.54331H144.068C144.393 3.54331 144.626 3.77953 144.626 4.11025V11.4332H143.788V9.73239C143.184 10.9608 141.974 11.7639 140.486 11.7639C138.16 11.7639 136.485 9.96861 136.485 7.51188C136.485 5.05515 138.16 3.25984 140.486 3.25984C141.974 3.25984 143.184 4.063 143.788 5.29137V3.54331ZM143.788 7.51188C143.788 5.52759 142.393 4.063 140.532 4.063C138.625 4.063 137.276 5.52759 137.276 7.51188C137.276 9.49616 138.625 10.9608 140.532 10.9608C142.393 10.9608 143.788 9.49616 143.788 7.51188Z" fill="white"/>
<path d="M146.905 0.379266V5.24557C147.51 4.01718 148.719 3.26125 150.208 3.26125C152.534 3.26125 154.208 5.05659 154.208 7.51337C154.208 9.97014 152.487 11.7655 150.208 11.7655C148.719 11.7655 147.51 10.9623 146.905 9.78116V11.4348H146.068V0.946214C146.068 0.615494 146.3 0.379266 146.626 0.379266H146.905ZM150.115 4.06443C148.208 4.06443 146.859 5.52905 146.859 7.46612C146.859 9.45044 148.208 10.8678 150.115 10.8678C151.976 10.8678 153.371 9.45044 153.371 7.46612C153.371 5.52905 151.976 4.06443 150.115 4.06443Z" fill="white"/>
<path d="M154.581 8.8822H155.418C155.418 10.1106 156.488 10.9611 157.93 10.9611C159.279 10.9611 160.209 10.2524 160.209 9.35467C160.209 7.13407 154.767 8.55147 154.767 5.62218C154.767 4.25202 156.023 3.25984 157.651 3.25984C159.511 3.25984 160.814 4.39376 160.814 5.90566H159.977C159.977 4.81898 159 4.06303 157.651 4.06303C156.488 4.06303 155.557 4.72449 155.557 5.57493C155.557 7.70103 161 6.37812 161 9.26017C161 10.6776 159.697 11.717 157.883 11.717C155.976 11.7642 154.581 10.5358 154.581 8.8822Z" fill="white"/>
<path d="M109.318 11.4345H106.76V1.89109C106.76 1.04069 107.411 0.379266 108.249 0.379266H109.318V11.4345Z" fill="white"/>
<path d="M128.065 9.54473L130.484 1.51314C130.67 0.898957 131.275 0.426511 131.926 0.426511H133.508L130.019 11.4345H126.111L122.623 0.379266H124.204C124.855 0.379266 125.414 0.804467 125.6 1.41865L128.065 9.54473Z" fill="white"/>
<path d="M116.668 0C113.086 0 110.667 2.40946 110.667 5.90554C110.667 9.40162 113.086 11.8111 116.668 11.8111C120.204 11.8111 122.669 9.40162 122.669 5.90554C122.669 2.4567 120.204 0 116.668 0ZM116.668 9.5906C114.622 9.5906 113.226 8.07878 113.226 5.90554C113.226 5.24412 113.366 4.62994 113.645 4.11025C113.645 4.11025 113.645 4.11025 113.645 4.06301C113.645 4.06301 113.645 4.06301 113.645 4.01577C113.645 4.01577 113.691 3.96852 113.691 3.92128C113.691 3.92128 113.691 3.87403 113.738 3.87403C113.738 3.82679 113.784 3.82679 113.784 3.77954C114.063 3.35435 114.715 2.55119 115.878 2.36222H115.971C116.343 2.31497 117.459 2.31497 117.971 3.16537C117.971 3.16537 117.971 3.16537 117.971 3.21261C118.017 3.25986 118.017 3.3071 118.017 3.35435C118.017 3.35435 118.017 3.40159 118.064 3.40159C118.669 4.72443 118.017 6.66145 117.227 7.41736C117.227 7.41736 119.646 6.00003 119.552 3.82679C119.878 4.39372 120.064 5.10239 120.064 5.85829C120.111 8.07878 118.715 9.5906 116.668 9.5906Z" fill="white"/>
</svg>
